<svg width="128" height="128" xmlns="http://www.w3.org/2000/svg">
 <g id="Layer_1">
  <title>Layer 1</title>
  <path id="svg_1" d="m65.76811,3.32251c11.0678,0 20.04663,8.98748 20.04663,20.05528c0,11.0678 -8.97883,20.04664 -20.04663,20.04664c-11.0678,0 -20.04664,8.98748 -20.04664,20.05528c0,11.0678 8.97884,20.04664 20.04664,20.04664c22.1356,0 40.1019,-17.96633 40.1019,-40.10193c0,-22.1356 -17.9663,-40.10191 -40.1019,-40.10191l0,0zm0,13.78801c-3.46047,0 -6.26728,2.8068 -6.26728,6.26727c0,3.46048 2.8068,6.26727 6.26728,6.26727c3.46047,0 6.26727,-2.8068 6.26727,-6.26727c0,-3.46047 -2.8068,-6.26727 -6.26727,-6.26727zm0,40.10192c3.45868,0 6.26727,2.80858 6.26727,6.26727c0,3.45868 -2.80859,6.26728 -6.26727,6.26728c-3.45869,0 -6.26728,-2.80859 -6.26728,-6.26728c0,-3.45868 2.80859,-6.26727 6.26728,-6.26727zm39.20244,-13.76246c0,22.11915 -17.93111,40.05027 -40.05027,40.05027c-22.11915,0 -40.05027,-17.93112 -40.05027,-40.05027c0,-22.11917 17.93112,-40.05029 40.05027,-40.05029c22.11916,0 40.05027,17.93112 40.05027,40.05029z" stroke="#000" fill="#444444"/>
  <path stroke="#000" id="svg_3" d="m76.53015,112.72719c-2.22604,-0.82115 -3.11489,-3.07794 -3.11489,-3.07794s-1.0029,0.51118 -1.0029,-0.92447s1.0029,0.92447 2.0058,-4.61872c0,0 2.78059,-0.71964 2.22604,-6.67068l-0.6686,0c0,0 1.66953,-6.36252 0,-8.5178c-1.6715,-2.15528 -2.33813,-3.59093 -6.01346,-4.61872s-2.33617,-0.82296 -5.0086,-0.71782c-2.67243,0.10332 -4.90044,1.43565 -4.90044,2.15347c0,0 -1.66953,0.10332 -2.33617,0.71964c-0.6686,0.61631 -1.78162,3.4876 -1.78162,4.20724s0.55651,5.54319 1.11302,6.56917l-0.6627,0.20483c-0.55651,5.95104 2.22604,6.67068 2.22604,6.67068c1.00093,5.54319 2.00383,3.18307 2.00383,4.61872s-1.0029,0.92447 -1.0029,0.92447s-0.88884,2.25679 -3.11489,3.07794c-2.22604,0.81933 -14.58334,5.23141 -15.58821,6.15588c-1.00487,0.92628 -0.89081,5.23503 -0.89081,5.23503l52.99046,0c0,0 0.11602,-4.30875 -0.88884,-5.23503c-1.00683,-0.92447 -13.36413,-5.33654 -15.59017,-6.15588zm-24.52188,-0.31178c-0.19468,-0.32628 -0.29104,-0.56193 -0.29104,-0.56193s-0.84951,0.43323 -0.84951,-0.78308s0.84951,0.78308 1.69903,-3.91359c0,0 2.3578,-0.60906 1.88584,-5.65376l-0.56634,0c0,0 0.28121,-1.0713 0.46605,-2.41812c-0.00787,-0.55831 0.0118,-1.15287 0.07276,-1.80543l0.07473,-0.7722c-0.0413,-0.89184 -0.21041,-1.70211 -0.61354,-2.22235c-1.41586,-1.82537 -1.9822,-3.0435 -5.09512,-3.91359c-3.11292,-0.87009 -1.9822,-0.69788 -4.24561,-0.60906c-2.26537,0.08701 -4.15318,1.21631 -4.15318,1.82719c0,0 -1.41586,0.08701 -1.9822,0.60906c-0.53291,0.49124 -1.38636,2.65014 -1.48862,3.41691l0,0.50936c0.09242,1.18368 0.50735,4.43926 0.92227,5.20603l-0.56241,0.17402c-0.46999,5.0447 1.88584,5.65376 1.88584,5.65376c0.84951,4.69667 1.69903,2.69727 1.69903,3.91359s-0.84951,0.78308 -0.84951,0.78308s-0.75316,1.91601 -2.64097,2.60845c-0.11995,0.0435 -0.27334,0.10151 -0.45622,0.16677l0,9.48759l1.13072,0c-0.05703,-2.31661 0.15142,-5.30573 1.46699,-6.51479c0.70006,-0.6435 2.99493,-1.70211 12.49102,-5.1879zm43.91127,-16.41567c-0.07866,-0.68519 -0.24974,-1.29607 -0.57421,-1.7148c-1.41389,-1.82719 -1.9822,-3.0435 -5.09316,-3.91359c-3.11489,-0.87009 -1.9822,-0.69788 -4.24757,-0.60906c-2.26341,0.08701 -4.15122,1.21631 -4.15122,1.82719c0,0 -1.41389,0.08701 -1.9822,0.60906c-0.53291,0.49305 -1.39423,2.66827 -1.49058,3.42779l0.06489,0l0.15732,1.65498c0.03933,0.41873 0.04326,0.79033 0.05309,1.16918c0.17698,1.20725 0.41296,2.44712 0.64894,2.88036l-0.56241,0.17402c-0.46999,5.0447 1.88781,5.65376 1.88781,5.65376c0.84951,4.69667 1.69706,2.69727 1.69706,3.91359s-0.84951,0.78308 -0.84951,0.78308s-0.10422,0.2574 -0.32053,0.61269c9.38006,3.4441 11.65527,4.49546 12.34746,5.13715c1.31753,1.20906 1.52401,4.19636 1.46699,6.51479l0.94391,0l0,-9.6181c-0.03146,-0.01088 -0.07473,-0.02719 -0.10226,-0.03807c-1.88584,-0.69426 -2.64097,-2.60845 -2.64097,-2.60845s-0.85148,0.43323 -0.85148,-0.78308s0.85148,0.78308 1.69903,-3.91359c0,0 1.58104,-0.4151 1.89371,-3.33715l0,-2.22416c-0.00197,-0.03263 -0.00197,-0.05982 -0.0059,-0.09245l-0.56831,0c0,0 0.42279,-1.61329 0.57421,-3.37341l0,-2.13172l0.0059,0z" fill="#EDFFFF"/>
  <path stroke="#000" id="svg_4" d="m21.74889,74.35668c-1.55529,-1.08905 1.58405,-2.93195 2.9953,-1.67659c1.20458,1.08807 -1.47297,2.47145 -2.9953,1.67659zm4.16457,2.47854c-1.27094,-1.19902 2.20668,-2.48008 3.30678,-1.28236c1.30581,1.25245 -2.22286,2.68283 -3.30678,1.28236zm4.74107,2.99882c-1.5878,-0.68916 -0.00985,-2.27884 1.63426,-2.13706c2.28376,0.2235 1.6734,2.6637 -0.55401,2.54407c-0.43238,-0.03215 -0.8176,-0.18959 -1.08025,-0.40701zm3.96574,2.64784c-1.32784,-1.08248 1.73411,-2.5042 3.0213,-1.47345c1.40006,1.14658 -1.72453,2.66002 -3.0213,1.47345zm-7.70088,0.05936c-1.47615,-0.89595 0.6906,-2.3436 2.32075,-1.96573c2.36862,0.48613 0.60763,2.82342 -1.50623,2.29242c-0.29078,-0.08832 -0.55119,-0.20981 -0.81451,-0.3267zm-6.27873,0c-1.73496,-1.03892 1.43506,-2.7456 2.91991,-1.65879c1.50651,1.13282 -1.32059,2.74015 -2.91991,1.65879zm-6.20201,-0.05936c-1.32866,-1.08217 1.73496,-2.50469 3.02087,-1.47303c1.39608,1.14841 -1.7198,2.65907 -3.02087,1.47303zm-5.90698,0.05936c-1.73496,-1.03892 1.43506,-2.7456 2.91992,-1.65879c1.5065,1.13282 -1.32059,2.74015 -2.91992,1.65879zm-6.20149,-0.05844c-1.52241,-1.27727 2.595,-2.67118 3.28146,-1.06887c0.50752,1.0723 -2.24106,2.00606 -3.28146,1.06887zm28.07289,2.83914c-1.47935,-0.98416 1.15186,-2.70347 2.73058,-1.8077c1.94962,0.89237 -0.63366,2.95997 -2.42359,2.00575c-0.10095,-0.06687 -0.2044,-0.1322 -0.30699,-0.19805zm-4.48962,2.44049c-1.24707,-1.14054 1.99432,-2.39236 3.1652,-1.32279c1.52734,1.13615 -1.54031,2.68413 -2.95293,1.5491l-0.21228,-0.22631zm-4.01586,3.03519c-1.34733,-0.79029 0.50337,-2.03499 1.97004,-1.82328c2.23244,0.36928 0.82563,2.6649 -1.22202,2.22924c-0.31728,-0.06989 -0.57473,-0.22518 -0.74803,-0.40596z" fill="#FFAC8D"/>
 </g>

</svg>