<svg xmlns="http://www.w3.org/2000/svg" viewBox="0 0 64 64" id="switch"  width="32" height="32">
  <defs>
    <linearGradient id="a" x1="3.999" x2="59.999" y1="32" y2="32" gradientUnits="userSpaceOnUse">
      <stop offset="0" stop-color="#00c0ff"></stop>
      <stop offset="1" stop-color="#5558ff"></stop>
    </linearGradient>
  </defs>
  <path fill="url(#a)" d="M4.9979,20.50147l51.62953-.057L43.563,7.40918a1.00012,1.00012,0,0,1,1.41212-1.41613L59.7072,20.69191a1.00552,1.00552,0,0,1,.002,1.41412L44.92441,36.924a1.00014,1.00014,0,0,1-1.41612-1.41211l13.03827-13.0672-51.54769.05689A1.00019,1.00019,0,0,1,4.9979,20.50147Zm54.00421,21.081-51.62948-.057L20.43751,28.49009a1.00049,1.00049,0,0,0-1.41319-1.416L4.2923,41.77287A1.00012,1.00012,0,0,0,4.29083,43.187L19.07514,58.005a1.00011,1.00011,0,0,0,1.416-1.41221L7.45338,43.52563l51.54677.05689A1.00018,1.00018,0,0,0,59.00211,41.58243Z"></path>
</svg>
